Coordinates
version=1
nRows=14
nColumns=24
inDegrees=yes

Units are S.I. units (second, meters, Newtons, ...)
Angles are in degrees.

endheader
time	pelvis_tilt	pelvis_list	pelvis_rotation	pelvis_tx	pelvis_ty	pelvis_tz	hip_flexion_r	hip_adduction_r	hip_rotation_r	knee_angle_r	ankle_angle_r	subtalar_angle_r	mtp_angle_r	hip_flexion_l	hip_adduction_l	hip_rotation_l	knee_angle_l	ankle_angle_l	subtalar_angle_l	mtp_angle_l	lumbar_extension	lumbar_bending	lumbar_rotation
      0.67800000	     -2.22037080	      9.57049405	      2.91030913	      0.00744477	      0.95584483	      0.26099728	     30.61726330	    -11.58294707	     -2.11792403	      3.03953646	      4.85608439	     -2.44156605	      0.57513575	    -25.73921190	     10.81347663	     11.36112730	      6.04905365	      7.97467980	     -6.62797352	      0.71483210	    -10.46391767	     -0.97792424	    -14.06579331
      0.68216667	     -2.30411834	      9.49071119	      2.95494881	      0.01368439	      0.95502745	      0.26146258	     30.72893420	    -11.48189756	     -1.60757796	      2.53324609	      4.58070941	     -3.03651655	      3.12214658	    -25.84032946	     10.69344480	     10.99818055	      5.68731900	      8.02477817	     -6.09491974	      3.24280978	    -10.34099250	     -0.87878460	    -14.00361765
      0.68633333	     -2.40016316	      9.36053590	      3.00448543	      0.01999536	      0.95423324	      0.26192812	     30.83616314	    -11.32945070	     -1.10648765	      2.00800071	      4.23323971	     -3.67275638	      3.16319666	    -25.99345103	     10.50422710	     10.94113405	      5.47109315	      7.82007815	     -6.12373973	      3.31277674	    -10.16633623	     -0.69473621	    -14.01837621
      0.69050000	     -2.49694313	      9.22780294	      3.03826098	      0.02633985	      0.95346582	      0.26243850	     30.96165358	    -11.16148864	     -0.60444016	      1.42196232	      3.87159013	     -4.29416104	      3.20617681	    -26.10604968	     10.32641320	     10.75276959	      5.17444026	      7.71155406	     -5.95051649	      3.42511501	    -10.00581146	     -0.52161806	    -13.96940999
      0.69466667	     -2.60654968	      9.07299481	      3.06291778	      0.03272873	      0.95270971	      0.26299449	     31.10515778	    -10.96095834	     -0.10875447	      0.80343637	      3.44699386	     -4.92172037	      3.25177756	    -26.18729739	     10.13190758	     10.52726517	      4.84715897	      7.60551945	     -5.73528862	      3.57558674	     -9.83827046	     -0.33013199	    -13.91441115
      0.69883333	     -2.70540244	      8.90922389	      3.08113376	      0.03916158	      0.95200686	      0.26356160	     31.24683427	    -10.74419297	      0.35172421	      0.14436229	      2.93783124	     -5.58876748	      3.31228204	    -26.25905549	      9.93474989	     10.25931366	      4.47960578	      7.50733661	     -5.51511597	      3.79765372	     -9.65816837	     -0.11932707	    -13.84500221
      0.70300000	     -2.82794028	      8.73245423	      3.08903425	      0.04563879	      0.95129469	      0.26418034	     31.42210721	    -10.50241240	      0.80900057	     -0.54442281	      2.37695324	     -6.23603454	      3.37442295	    -26.30237912	      9.72692734	     10.00968648	      4.11230110	      7.36303873	     -5.32269388	      4.04352100	     -9.44671859	      0.09990860	    -13.77460665
      0.70716667	     -2.95409661	      8.53461379	      3.09181647	      0.05215006	      0.95061784	      0.26481889	     31.60675605	    -10.23277914	      1.24563480	     -1.25900545	      1.73547004	     -6.90979624	      3.45503758	    -26.32229732	      9.50296819	      9.73294151	      3.71225800	      7.20404258	     -5.13557201	      4.36457528	     -9.25356046	      0.34380376	    -13.69901285
      0.71133333	     -3.09223003	      8.33157589	      3.08436976	      0.05870786	      0.94994909	      0.26548718	     31.82349831	     -9.94839418	      1.63824917	     -2.01725060	      1.05779609	     -7.54167908	      3.53525770	    -26.32772251	      9.27694255	      9.47752747	      3.31196515	      7.00682922	     -4.98354227	      4.68789042	     -9.00736114	      0.59215562	    -13.61750355
      0.71550000	     -3.23414588	      8.11338749	      3.06921889	      0.06530360	      0.94930811	      0.26619008	     32.05499991	     -9.64042968	      2.00562548	     -2.80650555	      0.32498956	     -8.18157137	      3.62515935	    -26.31255019	      9.03942142	      9.20586070	      2.88412170	      6.78583594	     -4.84203326	      5.05070749	     -8.76599284	      0.85962680	    -13.53134024
      0.71966667	     -3.38240966	      7.88458087	      3.04897601	      0.07192956	      0.94869871	      0.26692255	     32.30534965	     -9.31539732	      2.34110968	     -3.62885060	     -0.45152902	     -8.81464643	      3.73504803	    -26.27077220	      8.79484270	      8.91789683	      2.42186433	      6.54614590	     -4.71060996	      5.48347762	     -8.52364549	      1.13408490	    -13.44339684
      0.72383333	     -3.49853482	      7.63460999	      2.99879840	      0.07859611	      0.94813297	      0.26769596	     32.55328711	     -8.95541571	      2.61592901	     -4.51456429	     -1.19545428	     -9.33109213	      5.32187629	    -26.24831759	      8.53741553	      8.53967878	      1.95142143	      6.17166131	     -4.59181423	     11.03006528	     -8.32049076	      1.44696764	    -13.37337668
      0.72800000	     -3.67092747	      7.39866107	      2.97503428	      0.08527838	      0.94755819	      0.26845050	     32.87073439	     -8.61886411	      2.84708603	     -5.43364207	     -1.98616081	     -9.84130706	      5.32558021	    -26.16647171	      8.28756956	      8.32933045	      1.46919324	      5.83963743	     -4.58424416	     11.08150938	     -8.03739738	      1.72846527	    -13.27560239
      0.73216667	     -3.82724839	      7.15316569	      2.92838857	      0.09198743	      0.94701754	      0.26926117	     33.19132904	     -8.25780393	      3.06845318	     -6.39736049	     -2.74953365	    -10.35041680	      5.34412637	    -26.08194592	      8.03498827	      8.06790287	      0.95498218	      5.49875188	     -4.53972734	     11.19249066	     -7.78161924	      2.02579587	    -13.18593840
